<svg width="720" height="180" viewBox="0 0 720 180" fill="none" xmlns="http://www.w3.org/2000/svg" role="img" aria-labelledby="title desc">
  <title id="title">Simple Social Logo</title>
  <desc id="desc">Simple Social wordmark with a rounded chat badge and spark.</desc>
  <defs>
    <linearGradient id="badge-grad" x1="24" y1="18" x2="152" y2="162" gradientUnits="userSpaceOnUse">
      <stop offset="0" stop-color="#0A6CC4"/>
      <stop offset="1" stop-color="#10A6B6"/>
    </linearGradient>
    <linearGradient id="word-grad" x1="188" y1="32" x2="650" y2="156" gradientUnits="userSpaceOnUse">
      <stop offset="0" stop-color="#1E1D1A"/>
      <stop offset="1" stop-color="#3D3A34"/>
    </linearGradient>
  </defs>

  <rect x="16" y="18" width="146" height="146" rx="40" fill="url(#badge-grad)"/>
  <path d="M50 68c0-12.15 9.85-22 22-22h34c12.15 0 22 9.85 22 22v26c0 12.15-9.85 22-22 22H88l-18 15c-4.94 4.12-12.5.61-12.5-5.83V112.9C53.02 109.44 50 102.2 50 94V68Z" fill="#F8FCFF"/>
  <circle cx="78" cy="82" r="6" fill="#10A6B6"/>
  <circle cx="98.5" cy="82" r="6" fill="#10A6B6"/>
  <circle cx="119" cy="82" r="6" fill="#10A6B6"/>
  <path d="M122 50l6.8 11.2 12.8 2.5-9.2 9.4 1.6 13.2L122 80.4l-12 5.9 1.6-13.2-9.2-9.4 12.8-2.5L122 50Z" fill="#9BE9F1"/>

  <g fill="url(#word-grad)">
    <path d="M213.2 128c-11 0-20.2-2.8-27.5-8.4l7.8-15.3c6.5 4.7 14 7.1 22.4 7.1 4.4 0 7.8-.8 10.4-2.5 2.7-1.7 4-4.1 4-7.2 0-2.5-.9-4.4-2.6-5.8-1.7-1.4-5.1-2.8-10.2-4L210.4 90c-7.8-2.1-13.6-5-17.5-9-3.9-3.9-5.9-9.3-5.9-16.1 0-5.7 1.5-10.6 4.5-14.8 3.1-4.2 7.3-7.4 12.7-9.7 5.4-2.3 11.5-3.4 18.5-3.4 9.3 0 17.7 2.3 25.2 6.8l-7.2 15.1c-5.7-3.5-11.6-5.2-18-5.2-4 0-7.1.8-9.4 2.4-2.3 1.6-3.4 3.9-3.4 6.7 0 2.3.8 4.1 2.4 5.4 1.7 1.3 4.9 2.5 9.5 3.7l7 1.8c8.4 2.2 14.6 5.4 18.6 9.5 4 4 6.1 9.6 6.1 16.7 0 9-3.4 16-10.1 20.8-6.8 4.9-15.9 7.3-27.3 7.3Z"/>
    <path d="M270.8 126.4V67.1h19.2v59.3h-19.2Zm9.6-67.5c-3.3 0-6.2-1.2-8.5-3.5-2.3-2.3-3.5-5.2-3.5-8.5 0-3.4 1.2-6.2 3.5-8.5 2.3-2.4 5.2-3.5 8.5-3.5 3.4 0 6.2 1.1 8.5 3.5 2.3 2.3 3.5 5.1 3.5 8.5 0 3.3-1.2 6.2-3.5 8.5-2.3 2.3-5.1 3.5-8.5 3.5Z"/>
    <path d="M300.7 126.4V67.1h18.7V73c4.3-4.8 10-7.2 17.2-7.2 8.5 0 14.8 2.9 19 8.8 3.4-5.9 9.2-8.8 17.6-8.8 7.7 0 13.6 2.3 18 6.9 4.4 4.6 6.6 10.9 6.6 18.9v34.8h-19.2V95.3c0-4-.8-7-2.5-9.1-1.7-2.1-4.4-3.1-8-3.1-3.8 0-6.7 1.3-8.8 4-2.1 2.7-3.2 6.3-3.2 10.8v28.5h-19.2V95.3c0-4-.8-7-2.5-9.1-1.7-2.1-4.3-3.1-7.9-3.1-3.9 0-6.8 1.3-9 4-2.1 2.7-3.2 6.3-3.2 10.8v28.5h-19.4Z"/>
    <path d="M426.1 126.4V67.1h18.7v6.1c4-4.9 9.7-7.4 17-7.4 8.9 0 15.9 2.9 21.1 8.8 5.3 5.9 7.9 13.3 7.9 22.2 0 8.9-2.6 16.3-7.9 22.2-5.2 5.9-12.2 8.8-21.1 8.8-7.2 0-12.7-2.3-16.7-6.8v30h-19.1v-24.6Zm31.8-15.2c4.1 0 7.3-1.4 9.8-4.1 2.5-2.8 3.8-6.4 3.8-10.9 0-4.4-1.3-8-3.8-10.8-2.5-2.8-5.7-4.2-9.8-4.2-4 0-7.2 1.5-9.7 4.3-2.4 2.8-3.7 6.4-3.7 10.7 0 4.4 1.3 8 3.7 10.8 2.5 2.8 5.7 4.2 9.7 4.2Z"/>
    <path d="M501.9 126.4V37.4h19.2v89h-19.2Z"/>
    <path d="M563 127.8c-9.2 0-16.8-2.9-22.7-8.7-6-5.9-9-13.3-9-22.4 0-8.9 3-16.3 9-22.2 6-5.9 13.4-8.8 22.1-8.8 8.6 0 15.6 2.8 21 8.3 5.4 5.6 8.1 12.9 8.1 22 0 2.1-.1 3.7-.4 4.9h-40.8c.8 3.7 2.5 6.5 5.2 8.5 2.7 2 6.1 3 10.3 3 5.6 0 10.5-1.8 14.8-5.2l8.8 12.1c-6.7 5.6-15.5 8.3-26.4 8.3Zm-12.7-36.5h23.1c-.4-3.4-1.6-6-3.6-7.9-2-1.9-4.5-2.8-7.5-2.8-3.3 0-6 .9-8.3 2.9-2.2 1.9-3.5 4.5-3.8 7.8Z"/>
    <path d="M628.5 128c-5 0-9.9-.9-14.8-2.6-4.7-1.8-8.6-4.1-11.6-7l8.8-12.4c5.1 4.4 10.9 6.6 17.3 6.6 2.2 0 4-.4 5.3-1.3 1.4-.9 2-2.1 2-3.6 0-1.5-.7-2.6-2-3.4-1.3-.8-3.8-1.7-7.5-2.6l-4.9-1.2c-5.9-1.5-10.3-3.8-13.2-7-2.9-3.2-4.5-7.2-4.5-12.3 0-6.3 2.4-11.3 7-15.1 4.6-3.8 10.9-5.7 18.7-5.7 9.3 0 17.1 2.7 23.4 8.1l-8.6 12c-4.7-3.8-9.6-5.8-14.6-5.8-1.9 0-3.4.4-4.5 1.1-1.1.8-1.6 1.9-1.6 3.3 0 1.4.5 2.4 1.6 3.1.8.6 3 1.3 6.4 2.2l5.9 1.6c6.3 1.7 10.9 4 13.8 7.2 2.9 3.1 4.4 7.3 4.4 12.4 0 6.7-2.5 12-7.4 15.9-4.9 3.8-11.5 5.7-19.7 5.7Z"/>
  </g>
</svg>
