<svg width="720" height="180" viewBox="0 0 720 180" fill="none" xmlns="http://www.w3.org/2000/svg" role="img" aria-labelledby="title desc">
  <title id="title">Simple Social Logo</title>
  <desc id="desc">Stylized Simple Social wordmark with a social bubble mark.</desc>
  <defs>
    <linearGradient id="ss-grad" x1="68" y1="18" x2="652" y2="162" gradientUnits="userSpaceOnUse">
      <stop offset="0" stop-color="#0D77D9"/>
      <stop offset="1" stop-color="#20B8A3"/>
    </linearGradient>
  </defs>

  <rect x="16" y="18" width="146" height="146" rx="42" fill="url(#ss-grad)"/>
  <path d="M58 63c0-10.493 8.507-19 19-19h24c10.493 0 19 8.507 19 19v22c0 10.493-8.507 19-19 19H90l-14 12c-4.4 3.771-11 0.644-11-5.153V104.4C60.916 101.19 58 93.771 58 85V63Z" fill="#F5FBFF"/>
  <circle cx="80" cy="74" r="5.5" fill="#0D77D9"/>
  <circle cx="99" cy="74" r="5.5" fill="#0D77D9"/>
  <circle cx="118" cy="74" r="5.5" fill="#0D77D9"/>

  <g fill="#1E1D1A">
    <path d="M208.1 121.5c-10.5 0-19.2-2.6-26.2-7.8l7.4-14.8c6.2 4.5 13.3 6.8 21.3 6.8 4.1 0 7.4-.8 9.8-2.3 2.5-1.6 3.7-3.8 3.7-6.8 0-2.3-.8-4.1-2.5-5.4-1.6-1.4-4.8-2.6-9.6-3.8l-6.7-1.8c-7.4-2-13-4.8-16.7-8.5-3.7-3.8-5.6-8.9-5.6-15.3 0-5.4 1.4-10.1 4.3-14.1 2.9-4 6.9-7.1 12.1-9.2 5.1-2.2 11-3.2 17.6-3.2 8.9 0 16.9 2.2 24 6.5l-6.8 14.5c-5.4-3.4-11.1-5.1-17.1-5.1-3.8 0-6.8.8-9 2.3-2.2 1.5-3.3 3.6-3.3 6.4 0 2.2.8 3.9 2.3 5.1 1.6 1.2 4.6 2.4 9 3.5l6.7 1.7c8 2.1 13.9 5.1 17.8 9 3.9 3.9 5.8 9.2 5.8 15.9 0 8.6-3.2 15.2-9.7 19.9-6.4 4.7-15.1 7-26 7Z"/>
    <path d="M263.2 120V63.5H282V120h-18.8Zm9.4-64.2c-3.2 0-5.9-1.1-8.1-3.3-2.2-2.2-3.3-4.9-3.3-8.1s1.1-5.9 3.3-8.1c2.2-2.2 4.9-3.3 8.1-3.3s5.9 1.1 8.1 3.3c2.2 2.2 3.3 4.9 3.3 8.1s-1.1 5.9-3.3 8.1c-2.2 2.2-4.9 3.3-8.1 3.3Z"/>
    <path d="M292.5 120V63.5h18.2v5.6c4.1-4.6 9.6-6.9 16.5-6.9 8.1 0 14.1 2.8 18.1 8.4 3.2-5.6 8.8-8.4 16.8-8.4 7.3 0 13 2.2 17.2 6.6 4.2 4.4 6.3 10.4 6.3 18V120h-18.8V90.4c0-3.8-.8-6.7-2.5-8.7-1.6-2-4.2-3-7.6-3-3.6 0-6.4 1.3-8.4 3.8-2 2.5-3 6-3 10.3V120h-18.8V90.4c0-3.8-.8-6.7-2.4-8.7-1.6-2-4.1-3-7.5-3-3.7 0-6.6 1.3-8.6 3.8-2 2.5-3.1 6-3.1 10.3V120h-18.4Z"/>
    <path d="M412.9 120V63.5h18.2v5.8c3.8-4.7 9.2-7.1 16.2-7.1 8.5 0 15.3 2.8 20.3 8.4 5.1 5.6 7.6 12.7 7.6 21.2s-2.5 15.6-7.6 21.2c-5.1 5.6-11.8 8.4-20.3 8.4-6.9 0-12.2-2.2-15.9-6.5V143h-18.5V120Zm30.5-14.5c3.9 0 7-1.3 9.4-3.9 2.4-2.7 3.6-6.1 3.6-10.4 0-4.2-1.2-7.6-3.6-10.3-2.4-2.7-5.5-4-9.4-4-3.8 0-6.9 1.4-9.3 4.1-2.3 2.7-3.5 6.1-3.5 10.2 0 4.2 1.2 7.6 3.5 10.3 2.4 2.7 5.5 4 9.3 4Z"/>
    <path d="M485.5 120V35.2h18.8V120h-18.8Z"/>
    <path d="M543.8 121.4c-8.8 0-16-2.8-21.7-8.3-5.7-5.6-8.5-12.7-8.5-21.4 0-8.5 2.8-15.6 8.5-21.2 5.8-5.6 12.8-8.4 21.2-8.4 8.2 0 14.9 2.7 20.1 8 5.2 5.3 7.8 12.3 7.8 20.9 0 2-.1 3.5-.4 4.7h-39.1c.7 3.5 2.4 6.2 4.9 8.1 2.6 1.9 5.8 2.9 9.8 2.9 5.3 0 10-1.7 14.1-5l8.4 11.6c-6.4 5.4-14.8 8.1-25.1 8.1Zm-12.2-34.9h22.1c-.4-3.2-1.5-5.7-3.4-7.5-1.9-1.8-4.3-2.7-7.2-2.7-3.1 0-5.8.9-7.9 2.8-2.1 1.8-3.4 4.3-3.6 7.4Z"/>
    <path d="M606.5 121.5c-4.8 0-9.5-.8-14.1-2.5-4.5-1.7-8.2-3.9-11-6.7l8.4-11.9c4.8 4.2 10.3 6.3 16.5 6.3 2.1 0 3.8-.4 5-1.2 1.3-.9 1.9-2 1.9-3.5 0-1.4-.6-2.5-1.9-3.2-1.2-.8-3.6-1.6-7.1-2.5l-4.7-1.2c-5.6-1.4-9.8-3.7-12.6-6.7-2.8-3-4.3-6.9-4.3-11.7 0-6 2.2-10.8 6.6-14.4 4.5-3.6 10.4-5.4 17.8-5.4 8.9 0 16.3 2.6 22.3 7.7l-8.2 11.5c-4.5-3.7-9.1-5.5-13.9-5.5-1.8 0-3.2.3-4.3 1-1 .7-1.5 1.8-1.5 3.1 0 1.3.5 2.3 1.6 3 .8.5 2.8 1.2 6.1 2.1l5.6 1.5c6 1.6 10.4 3.9 13.1 6.9 2.8 3 4.2 6.9 4.2 11.8 0 6.4-2.4 11.5-7.1 15.2-4.6 3.7-10.9 5.6-18.8 5.6Z"/>
  </g>
</svg>
