<svg width="1024" height="1024" viewBox="0 0 1024 1024" fill="none" xmlns="http://www.w3.org/2000/svg" role="img" aria-labelledby="title desc">
  <title id="title">Simple Social Maskable Icon</title>
  <desc id="desc">Maskable icon with centered chat bubble mark and lines.</desc>
  <defs>
    <linearGradient id="mask-bg" x1="80" y1="72" x2="944" y2="964" gradientUnits="userSpaceOnUse">
      <stop offset="0" stop-color="#0759A7"/>
      <stop offset="1" stop-color="#0FA0AF"/>
    </linearGradient>
    <linearGradient id="mask-bubble" x1="252" y1="272" x2="772" y2="768" gradientUnits="userSpaceOnUse">
      <stop offset="0" stop-color="#FFFFFF"/>
      <stop offset="1" stop-color="#D8F6FA"/>
    </linearGradient>
  </defs>

  <rect width="1024" height="1024" rx="220" fill="url(#mask-bg)"/>
  <path d="M248 362c0-70.69 57.31-128 128-128h272c70.69 0 128 57.31 128 128v190c0 70.69-57.31 128-128 128H508l-136 114c-33.2 27.87-82.5 4.08-82.5-39.27V651.8C262.4 636.8 248 613.8 248 586V362Z" fill="url(#mask-bubble)"/>
  <circle cx="398" cy="452" r="24" fill="#0FA0AF"/>
  <circle cx="512" cy="452" r="24" fill="#0FA0AF"/>
  <circle cx="626" cy="452" r="24" fill="#0FA0AF"/>
  <path d="M372 580h280" stroke="#0A65BA" stroke-width="48" stroke-linecap="round"/>
  <path d="M372 662h204" stroke="#0A65BA" stroke-width="48" stroke-linecap="round"/>
</svg>
