<svg width="1024" height="1024" viewBox="0 0 1024 1024" fill="none" xmlns="http://www.w3.org/2000/svg" role="img" aria-labelledby="title desc">
  <title id="title">Simple Social App Icon</title>
  <desc id="desc">Rounded square app icon with chat bubble and spark motif.</desc>
  <defs>
    <linearGradient id="icon-bg" x1="70" y1="64" x2="958" y2="980" gradientUnits="userSpaceOnUse">
      <stop offset="0" stop-color="#095FB1"/>
      <stop offset="1" stop-color="#11A7B7"/>
    </linearGradient>
    <linearGradient id="bubble-fill" x1="224" y1="246" x2="792" y2="816" gradientUnits="userSpaceOnUse">
      <stop offset="0" stop-color="#FFFFFF"/>
      <stop offset="1" stop-color="#D9F7FB"/>
    </linearGradient>
  </defs>

  <rect x="64" y="64" width="896" height="896" rx="230" fill="url(#icon-bg)"/>
  <rect x="110" y="110" width="804" height="804" rx="205" fill="#000000" fill-opacity="0.08"/>

  <path d="M220 372c0-75.11 60.89-136 136-136h312c75.11 0 136 60.89 136 136v200c0 75.11-60.89 136-136 136H514l-152 128c-36.43 30.63-91.5 4.67-91.5-43.12v-108.8C239.35 664.5 220 636.65 220 605V372Z" fill="url(#bubble-fill)"/>
  <circle cx="394" cy="466" r="28" fill="#11A7B7"/>
  <circle cx="512" cy="466" r="28" fill="#11A7B7"/>
  <circle cx="630" cy="466" r="28" fill="#11A7B7"/>
  <path d="M664 260l44.2 72.4 82.8 16.2-59.8 60.8 10.4 85.8-77.6-38.2-77.6 38.2 10.4-85.8-59.8-60.8 82.8-16.2L664 260Z" fill="#93E8F1"/>
  <path d="M352 600h320" stroke="#0C6CC5" stroke-width="52" stroke-linecap="round"/>
  <path d="M352 692h236" stroke="#0C6CC5" stroke-width="52" stroke-linecap="round"/>
</svg>
